<svg width="573" height="610" viewBox="0 0 573 610" fill="none" xmlns="http://www.w3.org/2000/svg">
<g clip-path="url(#clip0)">
<path d="M253.351 31.9012L47.0432 89.9251L123.33 361.166L329.637 303.142L253.351 31.9012Z" fill="url(#paint0_linear)"/>
<path d="M252.616 36.8867L50.2345 92.518L78.1131 193.938L280.495 138.307L252.616 36.8867Z" fill="#2478B6"/>
<path d="M183.443 195.762L128.544 210.852L129.695 215.038L184.594 199.947L183.443 195.762Z" fill="#BDBDBD"/>
<path d="M188.048 212.515L133.149 227.606L134.3 231.792L189.199 216.701L188.048 212.515Z" fill="#F5F5F5"/>
<path d="M274.146 179.84L130.849 219.23L131.999 223.416L275.296 184.026L274.146 179.84Z" fill="#69F0AE"/>
<path d="M194.878 93.5398L139.978 108.631L141.129 112.816L196.028 97.7255L194.878 93.5398Z" fill="white"/>
<path d="M230.933 93.634L142.535 117.933L143.686 122.119L232.084 97.8198L230.933 93.634Z" fill="white"/>
<path opacity="0.2" d="M215.543 110.881L164.581 124.89C163.494 125.189 162.855 126.312 163.154 127.4L163.35 128.113C163.649 129.2 164.773 129.839 165.86 129.541L216.822 115.532C217.909 115.233 218.548 114.11 218.249 113.022L218.053 112.309C217.754 111.221 216.631 110.582 215.543 110.881Z" fill="black"/>
<path d="M109.086 231.97C114.483 230.487 117.656 224.908 116.172 219.511C114.689 214.113 109.11 210.94 103.713 212.424C98.3153 213.908 95.1424 219.486 96.6261 224.884C98.1098 230.281 103.688 233.454 109.086 231.97Z" fill="#69F0AE"/>
<path d="M194.579 236.24L139.68 251.331L140.831 255.517L195.73 240.426L194.579 236.24Z" fill="#BDBDBD"/>
<path d="M199.178 252.993L144.279 268.084L145.429 272.27L200.329 257.179L199.178 252.993Z" fill="#F5F5F5"/>
<path d="M285.276 220.319L141.978 259.709L143.129 263.894L286.426 224.504L285.276 220.319Z" fill="#E0E0E0"/>
<path d="M120.209 272.451C125.607 270.967 128.779 265.388 127.296 259.991C125.812 254.593 120.234 251.421 114.836 252.904C109.439 254.388 106.266 259.966 107.749 265.364C109.233 270.761 114.811 273.934 120.209 272.451Z" fill="#E0E0E0"/>
<path d="M205.701 276.714L150.802 291.805L151.952 295.99L206.852 280.9L205.701 276.714Z" fill="#BDBDBD"/>
<path d="M210.306 293.461L155.407 308.552L156.558 312.737L211.457 297.647L210.306 293.461Z" fill="#F5F5F5"/>
<path d="M296.399 260.792L153.102 300.182L154.252 304.368L297.549 264.978L296.399 260.792Z" fill="#E0E0E0"/>
<path d="M131.339 312.929C136.736 311.445 139.909 305.867 138.425 300.469C136.942 295.072 131.363 291.899 125.966 293.383C120.568 294.866 117.395 300.445 118.879 305.842C120.363 311.24 125.941 314.413 131.339 312.929Z" fill="#E0E0E0"/>
<path d="M72.9206 138.899C74.3382 143.813 77.0775 148.243 80.8397 151.707C84.602 155.171 89.243 157.536 94.2568 158.544C99.2706 159.552 104.465 159.164 109.273 157.422C114.082 155.681 118.32 152.653 121.526 148.669C124.732 144.685 126.783 139.897 127.455 134.827C128.127 129.757 127.395 124.6 125.338 119.918C123.281 115.236 119.978 111.209 115.789 108.275C111.6 105.341 106.686 103.613 101.583 103.279L103.565 110.197C104.252 112.608 103.956 115.193 102.743 117.387C101.53 119.581 99.4974 121.205 97.0903 121.905C94.6791 122.592 92.0943 122.296 89.9006 121.083C87.7068 119.869 86.0823 117.837 85.382 115.43L83.3998 108.512C78.7382 111.883 75.2303 116.61 73.3548 122.049C71.4794 127.487 71.3277 133.372 72.9206 138.899Z" fill="url(#paint1_linear)"/>
<path d="M126.03 121.245C124.672 116.313 121.987 111.849 118.266 108.339C114.545 104.83 109.932 102.409 104.93 101.341C99.9274 100.273 94.7279 100.599 89.8981 102.283C85.0684 103.967 80.7938 106.945 77.5403 110.892C74.2869 114.839 72.1796 119.604 71.4482 124.666C70.7167 129.729 71.3893 134.895 73.3924 139.601C75.3956 144.308 78.6525 148.374 82.808 151.356C86.9635 154.339 91.8581 156.123 96.9581 156.515L95.0486 149.577C94.3911 147.159 94.7169 144.579 95.9548 142.4C97.1927 140.222 99.2422 138.621 101.656 137.948C104.074 137.291 106.654 137.616 108.833 138.854C111.011 140.092 112.612 142.142 113.285 144.555L115.194 151.493C119.893 148.178 123.454 143.495 125.394 138.082C127.333 132.668 127.555 126.789 126.03 121.245Z" fill="#0B5993"/>
<path d="M100.919 135.32C106.637 133.748 109.998 127.839 108.426 122.121C106.854 116.403 100.945 113.042 95.2273 114.614C89.5096 116.186 86.1486 122.095 87.7203 127.813C89.292 133.531 95.2013 136.892 100.919 135.32Z" fill="white" stroke="white" stroke-width="0.660734" stroke-miterlimit="10"/>
<path d="M101.643 137.948C99.229 138.621 97.1795 140.222 95.9416 142.4C94.7037 144.579 94.3779 147.159 95.0354 149.577L96.9449 156.515C103.423 157.007 109.871 155.234 115.188 151.5L113.278 144.562C112.607 142.146 111.006 140.093 108.825 138.854C106.645 137.615 104.063 137.289 101.643 137.948Z" fill="white" stroke="white" stroke-width="0.660734" stroke-miterlimit="10"/>
<path d="M87.4832 127.244C86.212 125.868 85.3355 124.174 84.9459 122.342C84.5658 120.494 84.9239 118.57 85.9436 116.983C87.0999 115.285 89.0161 114.267 90.952 113.567C92.888 112.867 94.9164 112.411 96.7533 111.492C98.2719 110.725 99.6228 109.663 100.728 108.369C101.832 107.074 102.669 105.574 103.189 103.953C103.8 105.415 104.206 106.953 104.398 108.526C104.49 109.312 104.42 110.11 104.192 110.869C103.965 111.628 103.586 112.332 103.076 112.939C104.451 111.776 104.748 113.534 104.689 114.651C105.726 115.377 107.662 115.014 108.098 116.203C108.59 117.373 108.794 118.645 108.693 119.91C108.528 121.165 109.578 123.002 108.389 123.425" fill="white"/>
<path d="M87.4832 127.244C86.212 125.868 85.3355 124.174 84.9459 122.342C84.5658 120.494 84.9239 118.57 85.9436 116.983C87.0999 115.285 89.0161 114.267 90.952 113.567C92.888 112.867 94.9164 112.411 96.7533 111.492C98.2719 110.725 99.6228 109.663 100.728 108.369C101.832 107.074 102.669 105.574 103.189 103.953C103.8 105.415 104.206 106.953 104.398 108.526C104.49 109.312 104.42 110.11 104.192 110.869C103.965 111.628 103.586 112.332 103.076 112.939C104.451 111.776 104.748 113.534 104.689 114.651C105.726 115.377 107.662 115.014 108.098 116.203C108.59 117.373 108.794 118.645 108.693 119.91C108.528 121.165 109.578 123.002 108.389 123.425" stroke="white" stroke-width="0.660734" stroke-miterlimit="10"/>
<path d="M103.565 112.53C103.565 112.53 110.966 111.175 108.765 123.313L103.565 112.53Z" fill="white"/>
<path d="M468.396 471.929H398.735V188.825H528.82L468.396 471.929Z" fill="url(#paint2_linear)"/>
<path d="M464.927 471.929H396.641V188.825H524.156L464.927 471.929Z" fill="#BDBDBD"/>
<path d="M481.212 100.802L267.505 123.452L297.284 404.422L510.991 381.772L481.212 100.802Z" fill="url(#paint3_linear)"/>
<path d="M481.431 100.513L267.232 123.215L278.582 230.309L492.782 207.606L481.431 100.513Z" fill="url(#paint4_linear)"/>
<path d="M478.711 103.265L270.471 125.336L299.557 399.768L507.797 377.697L478.711 103.265Z" fill="#F5F5F5"/>
<path d="M478.921 102.981L270.202 125.103L281.288 229.699L490.007 207.578L478.921 102.981Z" fill="#2478B6"/>
<path d="M384.939 248.558L328.321 254.559L328.779 258.876L385.397 252.875L384.939 248.558Z" fill="#BDBDBD"/>
<path d="M386.769 265.831L330.151 271.832L330.609 276.149L387.227 270.148L386.769 265.831Z" fill="#F5F5F5"/>
<path d="M477.018 247.533L329.234 263.196L329.691 267.513L477.476 251.85L477.018 247.533Z" fill="#69F0AE"/>
<path d="M412.776 149.537L356.158 155.537L356.615 159.854L413.233 153.854L412.776 149.537Z" fill="white"/>
<path d="M448.336 155.474L357.17 165.137L357.627 169.453L448.793 159.791L448.336 155.474Z" fill="white"/>
<path opacity="0.2" d="M430.351 169.988L377.794 175.559C376.672 175.677 375.86 176.683 375.978 177.804L376.056 178.54C376.175 179.661 377.181 180.474 378.302 180.355L430.86 174.785C431.981 174.666 432.794 173.66 432.675 172.539L432.597 171.803C432.478 170.682 431.473 169.869 430.351 169.988Z" fill="black"/>
<path d="M305.691 272.244C311.258 271.654 315.292 266.663 314.702 261.097C314.112 255.53 309.121 251.496 303.555 252.086C297.988 252.676 293.954 257.667 294.544 263.233C295.134 268.8 300.125 272.834 305.691 272.244Z" fill="#69F0AE"/>
<path d="M389.367 290.298L332.748 296.299L333.206 300.615L389.824 294.615L389.367 290.298Z" fill="#BDBDBD"/>
<path d="M391.197 307.571L334.579 313.572L335.037 317.889L391.655 311.888L391.197 307.571Z" fill="#F5F5F5"/>
<path d="M481.446 289.273L333.661 304.936L334.119 309.253L481.903 293.59L481.446 289.273Z" fill="#E0E0E0"/>
<path d="M310.119 313.984C315.685 313.394 319.72 308.403 319.13 302.836C318.54 297.27 313.549 293.236 307.982 293.826C302.416 294.416 298.381 299.406 298.971 304.973C299.561 310.54 304.552 314.574 310.119 313.984Z" fill="#E0E0E0"/>
<path d="M393.788 332.038L337.17 338.039L337.627 342.356L394.246 336.355L393.788 332.038Z" fill="#BDBDBD"/>
<path d="M395.618 349.312L339 355.312L339.457 359.629L396.076 353.628L395.618 349.312Z" fill="#F5F5F5"/>
<path d="M485.867 331.013L338.083 346.677L338.54 350.994L486.325 335.33L485.867 331.013Z" fill="#E0E0E0"/>
<path d="M314.54 355.725C320.107 355.135 324.141 350.144 323.551 344.577C322.961 339.01 317.97 334.976 312.404 335.566C306.837 336.156 302.803 341.147 303.393 346.714C303.983 352.28 308.974 356.315 314.54 355.725Z" fill="#E0E0E0"/>
<path d="M285.062 174.559C285.659 179.64 287.64 184.459 290.788 188.492C293.936 192.524 298.131 195.615 302.915 197.426C307.699 199.238 312.889 199.701 317.919 198.765C322.948 197.829 327.624 195.53 331.436 192.118C335.248 188.707 338.051 184.314 339.537 179.419C341.024 174.524 341.138 169.315 339.867 164.36C338.596 159.404 335.989 154.893 332.33 151.318C328.671 147.743 324.1 145.242 319.117 144.086L319.962 151.235C320.24 153.718 319.528 156.209 317.981 158.17C316.434 160.13 314.175 161.402 311.697 161.708C309.206 161.995 306.703 161.285 304.735 159.732C302.766 158.18 301.492 155.911 301.191 153.422L300.345 146.273C295.196 148.841 290.965 152.936 288.229 157.999C285.494 163.061 284.388 168.845 285.062 174.559Z" fill="url(#paint5_linear)"/>
<path d="M340.326 165.752C339.785 160.666 337.859 155.826 334.756 151.76C331.654 147.694 327.495 144.558 322.733 142.693C317.971 140.828 312.788 140.307 307.749 141.185C302.711 142.063 298.01 144.308 294.16 147.674C290.31 151.041 287.457 155.399 285.914 160.275C284.37 165.151 284.195 170.357 285.407 175.326C286.619 180.294 289.171 184.835 292.787 188.453C296.402 192.07 300.941 194.626 305.909 195.841L305.149 188.686C304.891 186.192 305.631 183.697 307.207 181.747C308.784 179.797 311.067 178.551 313.56 178.279C316.054 178.022 318.548 178.762 320.498 180.338C322.448 181.914 323.695 184.198 323.966 186.69L324.726 193.846C329.901 191.337 334.176 187.293 336.968 182.265C339.759 177.237 340.932 171.471 340.326 165.752Z" fill="#F9A826"/>
<path d="M313.292 175.547C319.189 174.922 323.462 169.635 322.837 163.739C322.212 157.842 316.925 153.568 311.028 154.193C305.132 154.818 300.858 160.105 301.483 166.002C302.108 171.899 307.395 176.172 313.292 175.547Z" fill="white" stroke="white" stroke-width="0.660734" stroke-miterlimit="10"/>
<path d="M313.56 178.279C311.067 178.551 308.784 179.797 307.208 181.747C305.631 183.697 304.891 186.192 305.149 188.686L305.909 195.842C312.221 197.381 318.873 196.68 324.726 193.859L323.966 186.704C323.698 184.209 322.453 181.922 320.503 180.343C318.552 178.764 316.056 178.022 313.56 178.279Z" fill="white" stroke="white" stroke-width="0.660734" stroke-miterlimit="10"/>
<path d="M301.323 165.421C300.29 163.856 299.699 162.042 299.612 160.169C299.537 158.286 300.201 156.448 301.462 155.048C302.876 153.555 304.937 152.861 306.959 152.484C308.981 152.108 311.036 152.015 313.018 151.354C314.641 150.843 316.146 150.014 317.446 148.916C318.746 147.818 319.814 146.473 320.59 144.958C320.957 146.498 321.11 148.081 321.046 149.663C321.009 150.455 320.81 151.231 320.463 151.943C320.115 152.655 319.625 153.289 319.024 153.806C320.564 152.881 320.577 154.658 320.346 155.755C321.251 156.64 323.22 156.594 323.458 157.843C323.758 159.076 323.758 160.363 323.458 161.596C323.088 162.805 323.834 164.794 322.585 165.012" fill="white"/>
<path d="M301.323 165.421C300.29 163.856 299.699 162.042 299.612 160.169C299.537 158.286 300.201 156.448 301.462 155.048C302.876 153.555 304.937 152.861 306.959 152.484C308.981 152.108 311.036 152.015 313.018 151.354C314.641 150.843 316.146 150.014 317.446 148.916C318.746 147.818 319.814 146.473 320.59 144.958C320.957 146.498 321.11 148.081 321.046 149.663C321.009 150.455 320.81 151.231 320.463 151.943C320.115 152.655 319.625 153.289 319.024 153.806C320.564 152.881 320.577 154.658 320.346 155.755C321.251 156.64 323.22 156.594 323.458 157.843C323.758 159.076 323.758 160.363 323.458 161.596C323.088 162.805 323.834 164.794 322.585 165.012" stroke="white" stroke-width="0.660734" stroke-miterlimit="10"/>
<path d="M319.579 153.508C319.579 153.508 327.098 153.37 322.969 164.992L319.579 153.508Z" fill="white"/>
<path d="M407.463 0.264313H192.56V282.807H407.463V0.264313Z" fill="url(#paint6_linear)"/>
<path d="M407.708 0H192.309V107.693H407.708V0Z" fill="url(#paint7_linear)"/>
<path d="M404.715 2.45129H195.308V278.42H404.715V2.45129Z" fill="#F5F5F5"/>
<path d="M404.959 2.19366H195.07V107.376H404.959V2.19366Z" fill="#2478B6"/>
<path d="M296.15 137.049H239.214V141.39H296.15V137.049Z" fill="#BDBDBD"/>
<path d="M296.15 154.42H239.214V158.761H296.15V154.42Z" fill="#F5F5F5"/>
<path d="M387.826 145.738H239.214V150.079H387.826V145.738Z" fill="#0B5993"/>
<path d="M334.267 41.5205H277.332V45.8615H334.267V41.5205Z" fill="white"/>
<path d="M369.009 51.1672H277.332V55.5082H369.009V51.1672Z" fill="white"/>
<path opacity="0.2" d="M349.596 63.7146H296.744C295.617 63.7146 294.703 64.6287 294.703 65.7562V66.4963C294.703 67.6238 295.617 68.5379 296.744 68.5379H349.596C350.724 68.5379 351.638 67.6238 351.638 66.4963V65.7562C351.638 64.6287 350.724 63.7146 349.596 63.7146Z" fill="black"/>
<path d="M214.853 152.253C220.451 152.253 224.988 147.715 224.988 142.117C224.988 136.519 220.451 131.982 214.853 131.982C209.255 131.982 204.717 136.519 204.717 142.117C204.717 147.715 209.255 152.253 214.853 152.253Z" fill="#0B5993"/>
<path d="M296.15 179.026H239.214V183.367H296.15V179.026Z" fill="#BDBDBD"/>
<path d="M296.15 196.397H239.214V200.738H296.15V196.397Z" fill="#F5F5F5"/>
<path d="M387.826 187.714H239.214V192.056H387.826V187.714Z" fill="#E0E0E0"/>
<path d="M214.853 194.229C220.451 194.229 224.988 189.691 224.988 184.094C224.988 178.496 220.451 173.958 214.853 173.958C209.255 173.958 204.717 178.496 204.717 184.094C204.717 189.691 209.255 194.229 214.853 194.229Z" fill="#E0E0E0"/>
<path d="M296.15 221.009H239.214V225.35H296.15V221.009Z" fill="#BDBDBD"/>
<path d="M296.15 238.373H239.214V242.714H296.15V238.373Z" fill="#F5F5F5"/>
<path d="M387.826 229.691H239.214V234.032H387.826V229.691Z" fill="#E0E0E0"/>
<path d="M214.853 236.206C220.451 236.206 224.988 231.668 224.988 226.07C224.988 220.472 220.451 215.934 214.853 215.934C209.255 215.934 204.717 220.472 204.717 226.07C204.717 231.668 209.255 236.206 214.853 236.206Z" fill="#E0E0E0"/>
<path d="M204.658 52.9446C204.722 58.0583 206.189 63.0562 208.898 67.3937C211.607 71.7311 215.455 75.2417 220.022 77.5426C224.59 79.8436 229.701 80.8466 234.799 80.4425C239.897 80.0384 244.786 78.2426 248.934 75.2509C253.082 72.2591 256.328 68.1862 258.321 63.476C260.313 58.7659 260.974 53.5993 260.231 48.5394C259.489 43.4795 257.372 38.7204 254.111 34.7808C250.85 30.8413 246.57 27.8725 241.738 26.1981L241.824 33.3935C241.854 35.9088 240.884 38.3331 239.127 40.1334C237.37 41.9337 234.97 42.9626 232.455 42.9939C229.949 43.0169 227.535 42.0473 225.741 40.2968C223.947 38.5464 222.919 36.1572 222.881 33.6512L222.795 26.4558C217.416 28.472 212.789 32.0967 209.544 36.8364C206.298 41.5761 204.592 47.2007 204.658 52.9446Z" fill="url(#paint8_linear)"/>
<path d="M260.523 50.0043C260.52 44.8901 259.114 39.8746 256.458 35.5046C253.801 31.1346 249.995 27.5777 245.456 25.2217C240.917 22.8658 235.818 21.8011 230.715 22.1438C225.612 22.4865 220.702 24.2234 216.518 27.1651C212.335 30.1069 209.039 34.1406 206.99 38.8266C204.942 43.5126 204.219 48.6711 204.9 53.7397C205.582 58.8084 207.642 63.5927 210.855 67.5711C214.069 71.5495 218.313 74.5694 223.125 76.3016V69.0995C223.132 66.5923 224.131 64.1897 225.904 62.4168C227.677 60.6439 230.08 59.6448 232.587 59.6378C235.094 59.6448 237.497 60.6439 239.27 62.4168C241.043 64.1897 242.042 66.5923 242.049 69.0995V76.2949C247.459 74.3455 252.135 70.7749 255.442 66.0699C258.748 61.365 260.522 55.7547 260.523 50.0043Z" fill="#0B5993"/>
<path d="M232.6 56.9024C238.53 56.9024 243.337 52.0953 243.337 46.1655C243.337 40.2356 238.53 35.4285 232.6 35.4285C226.67 35.4285 221.863 40.2356 221.863 46.1655C221.863 52.0953 226.67 56.9024 232.6 56.9024Z" fill="white" stroke="white" stroke-width="0.660734" stroke-miterlimit="10"/>
<path d="M232.58 59.6378C230.073 59.6448 227.67 60.6439 225.898 62.4168C224.125 64.1897 223.126 66.5923 223.119 69.0995V76.2949C229.236 78.4876 235.925 78.4876 242.042 76.2949V69.0995C242.035 66.5923 241.036 64.1897 239.263 62.4168C237.49 60.6439 235.088 59.6448 232.58 59.6378Z" fill="white" stroke="white" stroke-width="0.660734" stroke-miterlimit="10"/>
<path d="M221.771 45.5642C220.91 43.8983 220.515 42.031 220.628 40.1594C220.75 38.2773 221.604 36.5177 223.006 35.2567C224.572 33.9353 226.693 33.4529 228.741 33.2746C230.79 33.0962 232.864 33.2085 234.886 32.812C236.553 32.4738 238.137 31.8079 239.544 30.8529C240.952 29.8978 242.156 28.6727 243.086 27.2487C243.287 28.8181 243.271 30.4077 243.04 31.9729C242.919 32.7559 242.64 33.5061 242.22 34.1775C241.8 34.849 241.247 35.4276 240.595 35.8778C242.227 35.1246 242.049 36.8888 241.698 37.9525C242.505 38.9304 244.474 39.089 244.573 40.3576C244.737 41.6168 244.597 42.8971 244.163 44.0908C243.667 45.2537 244.196 47.3085 242.934 47.3944" fill="white"/>
<path d="M221.771 45.5642C220.91 43.8983 220.515 42.031 220.628 40.1594C220.75 38.2773 221.604 36.5177 223.006 35.2567C224.572 33.9353 226.693 33.4529 228.741 33.2746C230.79 33.0962 232.864 33.2085 234.886 32.812C236.553 32.4738 238.137 31.8079 239.544 30.8529C240.952 29.8978 242.156 28.6727 243.086 27.2487C243.287 28.8181 243.271 30.4077 243.04 31.9729C242.919 32.7559 242.64 33.5061 242.22 34.1775C241.8 34.849 241.247 35.4276 240.595 35.8778C242.227 35.1246 242.049 36.8888 241.698 37.9525C242.505 38.9304 244.474 39.089 244.573 40.3576C244.737 41.6168 244.597 42.8971 244.163 44.0908C243.667 45.2537 244.196 47.3085 242.934 47.3944" stroke="white" stroke-width="0.660734" stroke-miterlimit="10"/>
<path d="M241.176 35.6466C241.176 35.6466 248.669 36.3073 243.337 47.4209L241.176 35.6466Z" fill="white"/>
<path d="M172.929 201.352L125.905 168.428H60.7961V201.352V217.481V493H467.716V201.352H172.929Z" fill="url(#paint9_linear)"/>
<path d="M64.2782 204.682V220.342V487.787H464.927V204.682H174.687" fill="#D5E6F5"/>
<path d="M174.687 204.682L128.383 172.722H64.2782V204.682" fill="#BDBDBD"/>
<path d="M374.949 246.46H154.264V446.002H374.949V246.46Z" fill="url(#paint10_linear)"/>
<path d="M372.94 247.914H157.263V442.375H372.94V247.914Z" fill="#9CC0E0"/>
<path d="M309.001 393.46H224.202V400.405H309.001V393.46Z" fill="#BDBDBD"/>
<path d="M357.75 407.356H172.454V414.3H357.75V407.356Z" fill="#E0E0E0"/>
<path d="M357.75 421.251H172.454V428.195H357.75V421.251Z" fill="#E0E0E0"/>
<path d="M212.335 322.266C212.456 331.922 215.225 341.36 220.341 349.55C225.456 357.74 232.721 364.37 241.345 368.715C249.968 373.061 259.619 374.956 269.245 374.195C278.872 373.433 288.105 370.043 295.937 364.396C303.77 358.748 309.902 351.059 313.666 342.166C317.429 333.273 318.68 323.517 317.281 313.963C315.881 304.408 311.887 295.421 305.731 287.98C299.576 280.54 291.496 274.931 282.373 271.766L282.538 285.358C282.583 290.09 280.752 294.648 277.446 298.035C274.141 301.423 269.629 303.364 264.897 303.435C260.164 303.48 255.606 301.649 252.219 298.343C248.832 295.038 246.89 290.526 246.819 285.794L246.654 272.203C236.476 276.001 227.719 282.847 221.577 291.807C215.435 300.767 212.207 311.404 212.335 322.266Z" fill="url(#paint11_linear)"/>
<path d="M317.855 316.723C317.853 307.064 315.2 297.592 310.184 289.338C305.168 281.084 297.983 274.365 289.411 269.914C280.839 265.464 271.209 263.452 261.573 264.098C251.936 264.744 242.661 268.023 234.76 273.578C226.859 279.134 220.635 286.751 216.766 295.601C212.897 304.451 211.532 314.193 212.82 323.765C214.107 333.338 217.998 342.373 224.068 349.885C230.138 357.398 238.154 363.1 247.242 366.37V352.779C247.261 348.053 249.147 343.527 252.488 340.185C255.83 336.844 260.356 334.958 265.082 334.939C269.807 334.958 274.334 336.844 277.675 340.185C281.017 343.527 282.903 348.053 282.922 352.779V366.37C293.147 362.697 301.989 355.958 308.242 347.072C314.494 338.187 317.851 327.588 317.855 316.723Z" fill="#0B5993"/>
<path d="M266.879 325.616C266.879 323.865 265.459 322.445 263.707 322.445C261.956 322.445 260.536 323.865 260.536 325.616V341.639C260.536 343.391 261.956 344.811 263.707 344.811C265.459 344.811 266.879 343.391 266.879 341.639V325.616Z" fill="white" stroke="white" stroke-width="0.660734" stroke-miterlimit="10"/>
<path d="M263.741 325.451C274.94 325.451 284.018 316.372 284.018 305.173C284.018 293.974 274.94 284.895 263.741 284.895C252.541 284.895 243.463 293.974 243.463 305.173C243.463 316.372 252.541 325.451 263.741 325.451Z" fill="white" stroke="white" stroke-width="0.660734" stroke-miterlimit="10"/>
<path d="M263.707 330.618C258.982 330.637 254.455 332.523 251.114 335.864C247.772 339.206 245.887 343.732 245.868 348.458V362.049C257.417 366.188 270.045 366.188 281.594 362.049V348.484C281.581 343.746 279.692 339.206 276.34 335.857C272.988 332.509 268.446 330.625 263.707 330.618Z" fill="white" stroke="white" stroke-width="0.660734" stroke-miterlimit="10"/>
<path d="M243.291 304.05C241.666 300.906 240.919 297.381 241.13 293.848C241.363 290.297 242.976 286.977 245.623 284.598C248.577 282.081 252.581 281.189 256.453 280.878C260.325 280.567 264.243 280.752 268.049 280.006C271.196 279.368 274.185 278.112 276.842 276.31C279.5 274.507 281.773 272.195 283.529 269.507C283.774 272.48 284.018 275.5 283.444 278.433C282.869 281.367 281.362 284.241 278.818 285.807C281.897 284.38 281.561 287.723 280.893 289.725C282.419 291.569 286.126 291.873 286.318 294.258C286.509 296.643 286.476 299.108 285.545 301.308C284.613 303.508 285.611 307.38 283.232 307.552" fill="white"/>
<path d="M243.291 304.05C241.666 300.906 240.919 297.381 241.13 293.848C241.363 290.297 242.976 286.977 245.623 284.598C248.577 282.081 252.581 281.189 256.453 280.878C260.325 280.567 264.243 280.752 268.049 280.006C271.196 279.368 274.185 278.112 276.842 276.31C279.5 274.507 281.773 272.195 283.529 269.507C283.774 272.48 284.018 275.5 283.444 278.433C282.869 281.367 281.362 284.241 278.818 285.807C281.897 284.38 281.561 287.723 280.893 289.725C282.419 291.569 286.126 291.873 286.318 294.258C286.509 296.643 286.476 299.108 285.545 301.308C284.613 303.508 285.611 307.38 283.232 307.552" stroke="white" stroke-width="0.660734" stroke-miterlimit="10"/>
<path d="M279.942 285.318C279.942 285.318 294.088 286.554 284.018 307.552L279.942 285.318Z" fill="white"/>
<g clip-path="url(#clip1)">
<path d="M441.338 324.922C440.335 324.922 439.375 324.36 438.912 323.397C438.269 322.057 438.834 320.451 440.174 319.808L556.315 264.063C557.657 263.412 559.263 263.988 559.904 265.325C560.547 266.664 559.982 268.27 558.642 268.913L442.501 324.656C442.124 324.839 441.731 324.922 441.338 324.922Z" fill="#FBD490"/>
<path d="M433.034 298.551C431.732 298.551 430.589 297.604 430.381 296.277C430.153 294.809 431.154 293.431 432.622 293.2L559.893 273.247C561.397 273.043 562.739 274.024 562.97 275.488C563.199 276.957 562.196 278.334 560.73 278.565L433.454 298.518C433.314 298.54 433.174 298.551 433.034 298.551Z" fill="#EEAF4B"/>
<path d="M513.649 195.19C513.569 186.606 491.744 179.654 464.826 179.654C437.908 179.654 416.083 186.606 416.003 195.19V252.893C416.083 261.478 437.908 268.429 464.826 268.429C491.744 268.429 513.569 261.478 513.649 252.893V195.19Z" fill="#38454F"/>
<path d="M464.826 209.246C491.792 209.246 513.652 202.269 513.652 193.662C513.652 185.055 491.792 178.078 464.826 178.078C437.86 178.078 416 185.055 416 193.662C416 202.269 437.86 209.246 464.826 209.246Z" fill="#FBD490"/>
<path d="M462.911 184.343C451.62 184.935 442.624 188.225 439.431 192.927C438.081 194.918 437.75 197.103 438.446 199.163C438.646 199.812 440.27 204.342 447.929 208.267C451.999 208.746 456.309 209.063 460.804 209.181C460.818 207.968 460.054 206.852 458.824 206.542C445.809 203.258 443.593 197.59 443.569 197.52C443.445 197.154 443.386 196.68 443.883 195.949C445.653 193.342 452.449 190.28 463.19 189.718C463.36 189.707 463.527 189.699 463.696 189.691C459.688 190.264 456.624 191.69 455.281 193.67C454.45 194.894 454.243 196.309 454.7 197.654C456.344 202.507 464.891 204.309 472.138 203.925C479.775 203.524 485.672 201.307 487.913 198.004C488.938 196.489 489.199 194.754 488.642 193.11C486.433 186.584 474.021 183.768 462.911 184.343ZM471.855 198.553C465.539 198.875 461.434 197.32 460.175 196.336C461.033 195.803 463.072 195.007 466.413 194.832C467.898 194.754 469.039 193.487 468.958 192.002C468.902 190.939 468.24 190.057 467.325 189.667C476.372 189.941 482.818 192.669 483.555 194.813C483.353 195.714 479.584 198.149 471.855 198.553Z" fill="#ED7161"/>
<path d="M513.649 237.253V219.151C512.248 219.146 511.032 220.257 510.965 221.696C510.752 226.304 502.214 229.08 498.999 230.127C497.587 230.587 496.812 232.104 497.272 233.519C497.643 234.654 498.695 235.375 499.83 235.375C500.105 235.375 500.387 235.332 500.661 235.243C503.166 234.428 507.505 233.008 510.986 230.53C510.983 230.563 510.965 230.587 510.965 230.619C510.653 237.361 495.768 240.242 490.164 241.326L489.742 241.407C488.284 241.689 487.332 243.101 487.614 244.559C487.864 245.845 488.989 246.738 490.251 246.738C490.42 246.738 490.592 246.722 490.764 246.687L491.184 246.607C496.874 245.509 508.417 243.252 513.649 237.253Z" fill="#455560"/>
<path d="M513.649 248.541V239.128C512.248 239.166 511.032 240.231 510.965 241.67C510.698 247.459 500.925 251.505 481.919 253.69L481.263 253.765C479.786 253.935 478.729 255.272 478.901 256.746C479.06 258.118 480.222 259.127 481.569 259.127C481.674 259.127 481.779 259.121 481.884 259.108L482.533 259.035C490.53 258.118 507.147 256.194 513.649 248.541Z" fill="#455560"/>
</g>
</g>
<path d="M207.5 546.8L219.9 602.6H319.1L331.5 546.8L269.5 540.6L207.5 546.8Z" fill="#FF5023"/>
<path d="M269.5 546.8H207.5L219.9 602.6H269.5V546.8Z" fill="#BD3C1A"/>
<path d="M244.7 546.8L250.9 602.6H288.1L294.3 546.8H244.7Z" fill="#FF5023"/>
<path d="M269.5 546.8V602.6H288.1L294.3 546.8H269.5Z" fill="#FF734F"/>
<path d="M328.861 538.851C330.575 533.845 331.5 528.238 331.5 522C331.5 487.758 303.741 460 269.5 460C235.259 460 207.5 487.758 207.5 522C207.5 528.238 208.425 533.845 210.139 538.851H328.861Z" fill="#BD720D"/>
<path d="M347 531.3C347 539.86 340.06 546.8 331.5 546.8H207.5C198.94 546.8 192 539.86 192 531.3C192 522.74 198.94 515.8 207.5 515.8H331.5C340.06 515.8 347 522.74 347 531.3Z" fill="#FFE98F"/>
<path d="M269.5 515.8H207.5C198.94 515.8 192 522.74 192 531.3C192 539.86 198.94 546.8 207.5 546.8H269.5V515.8Z" fill="#FFDA44"/>
<path d="M269.5 460C237.351 460 210.919 484.47 207.808 515.8H213.7C218.836 515.8 223 519.964 223 525.1V553C223 558.136 227.164 562.3 232.3 562.3C237.436 562.3 241.6 558.136 241.6 553V528.2C241.6 523.064 245.764 518.9 250.9 518.9C256.036 518.9 260.2 523.064 260.2 528.2V546.8C260.2 551.936 264.364 556.1 269.5 556.1C274.636 556.1 278.8 551.936 278.8 546.8V528.2C278.8 523.064 282.964 518.9 288.1 518.9C293.236 518.9 297.4 523.064 297.4 528.2V553C297.4 558.136 301.564 562.3 306.7 562.3C311.836 562.3 316 558.136 316 553V525.1C316 519.964 320.164 515.8 325.3 515.8H331.192C328.081 484.47 301.649 460 269.5 460Z" fill="#804C09"/>
<path d="M269.5 460C237.351 460 210.919 484.47 207.808 515.8H213.7C218.836 515.8 223 519.964 223 525.1V553C223 558.136 227.164 562.3 232.3 562.3C237.436 562.3 241.6 558.136 241.6 553V528.2C241.6 523.064 245.764 518.9 250.9 518.9C256.036 518.9 260.2 523.064 260.2 528.2V546.8C260.2 551.936 264.364 556.1 269.5 556.1C269.5 549.125 269.5 465.783 269.5 460Z" fill="#402604"/>
<path d="M300.5 503.4C303.924 503.4 306.7 500.624 306.7 497.2C306.7 493.776 303.924 491 300.5 491C297.076 491 294.3 493.776 294.3 497.2C294.3 500.624 297.076 503.4 300.5 503.4Z" fill="#FF5023"/>
<path d="M238.5 503.4C241.924 503.4 244.7 500.624 244.7 497.2C244.7 493.776 241.924 491 238.5 491C235.076 491 232.3 493.776 232.3 497.2C232.3 500.624 235.076 503.4 238.5 503.4Z" fill="#64C37D"/>
<path d="M269.5 484.8C272.924 484.8 275.7 482.024 275.7 478.6C275.7 475.176 272.924 472.4 269.5 472.4C266.076 472.4 263.3 475.176 263.3 478.6C263.3 482.024 266.076 484.8 269.5 484.8Z" fill="#FF9811"/>
<g clip-path="url(#clip2)">
<path d="M515.77 438.981C495.622 418.837 471.21 405.562 445.441 399.143L408.687 546.083L555.621 509.303C549.197 483.535 535.918 459.125 515.77 438.981Z" fill="#D9A460"/>
<path d="M500.289 454.465C483.054 437.233 462.171 425.877 440.127 420.386L419.86 501.413C419.817 501.454 419.772 501.489 419.73 501.531L389.405 531.862C387.103 534.164 387.104 537.895 389.405 540.197C391.707 542.498 395.439 542.498 397.74 540.196L414.302 523.631L408.687 546.083L459.522 533.358L446.795 546.087C444.494 548.389 444.495 552.12 446.796 554.422C449.099 556.724 452.83 556.723 455.131 554.421L481.755 527.792L491.944 525.242L480.097 537.091C477.795 539.393 477.796 543.125 480.098 545.426C482.4 547.728 486.131 547.727 488.432 545.426L514.178 519.676L534.377 514.619C528.883 492.578 517.524 471.697 500.289 454.465Z" fill="#F2D383"/>
<path d="M500.289 454.465C483.054 437.233 462.171 425.877 440.127 420.386L438.591 426.528C459.558 431.751 479.42 442.551 495.813 458.942C512.206 475.332 523.01 495.192 528.238 516.157L534.379 514.62C528.883 492.578 517.524 471.697 500.289 454.465Z" fill="#B3874F"/>
<path d="M469.431 512.281C460.868 503.719 446.984 503.72 438.422 512.284C431.059 519.649 430.036 530.946 435.34 539.411L475.797 529.284C476.213 523.184 474.094 516.943 469.431 512.281Z" fill="#E94F3D"/>
<path d="M454.982 454.282C449.035 448.336 440.525 446.524 433.011 448.837L423.91 485.222C423.933 485.245 423.954 485.269 423.977 485.292C432.541 493.854 446.423 493.854 454.985 485.29C463.547 476.727 463.546 462.844 454.982 454.282Z" fill="#E94F3D"/>
<path d="M476.076 507.868C484.64 516.43 498.523 516.429 507.085 507.866C515.647 499.302 515.645 485.419 507.082 476.857C498.518 468.295 484.635 468.297 476.073 476.86C467.511 485.424 467.513 499.307 476.076 507.868Z" fill="#E94F3D"/>
<path d="M490.819 445.882C479.244 436.373 466.408 429.176 452.921 424.289C449.384 432.326 450.902 442.05 457.484 448.632C466.048 457.194 479.931 457.193 488.492 448.63C489.357 447.765 490.13 446.844 490.819 445.882Z" fill="#E94F3D"/>
<path d="M490.819 445.882C479.244 436.373 466.408 429.176 452.921 424.289C452.057 426.254 451.494 428.318 451.235 430.414C463.736 435.002 475.645 441.68 486.415 450.455C487.135 449.895 487.831 449.291 488.492 448.63C489.357 447.765 490.13 446.844 490.819 445.882Z" fill="#C24232"/>
<path d="M451.516 409.029C452.339 409.852 453.672 409.852 454.495 409.029C455.317 408.207 455.317 406.873 454.495 406.05C453.672 405.228 452.338 405.228 451.516 406.051C450.693 406.873 450.693 408.207 451.516 409.029Z" fill="#B3874F"/>
<path d="M460.676 424.146C461.499 424.968 462.833 424.968 463.655 424.145C464.478 423.323 464.478 421.989 463.655 421.166C462.832 420.344 461.499 420.344 460.676 421.167C459.854 421.989 459.854 423.323 460.676 424.146Z" fill="#B3874F"/>
<path d="M483.94 427.114C484.763 427.936 486.097 427.936 486.919 427.114C487.742 426.291 487.742 424.957 486.919 424.135C486.096 423.312 484.763 423.312 483.94 424.135C483.117 424.958 483.118 426.291 483.94 427.114Z" fill="#B3874F"/>
<path d="M497.972 447.1C498.794 447.923 500.128 447.922 500.951 447.1C501.773 446.277 501.773 444.943 500.95 444.121C500.128 443.298 498.794 443.298 497.971 444.121C497.149 444.944 497.149 446.278 497.972 447.1Z" fill="#B3874F"/>
<path d="M521.826 459.035C522.649 459.858 523.982 459.858 524.805 459.035C525.627 458.212 525.627 456.879 524.804 456.056C523.982 455.233 522.648 455.234 521.826 456.056C521.003 456.879 521.003 458.213 521.826 459.035Z" fill="#B3874F"/>
<path d="M521.852 476.374C522.675 477.197 524.008 477.196 524.831 476.374C525.653 475.551 525.653 474.217 524.831 473.395C524.008 472.572 522.674 472.572 521.852 473.395C521.029 474.218 521.029 475.552 521.852 476.374Z" fill="#B3874F"/>
<path d="M545.926 506.051C546.748 506.873 548.082 506.873 548.904 506.05C549.727 505.228 549.727 503.894 548.904 503.071C548.082 502.249 546.748 502.249 545.925 503.072C545.103 503.894 545.103 505.228 545.926 506.051Z" fill="#B3874F"/>
<path d="M536.412 490.581C537.234 491.404 538.568 491.404 539.391 490.581C540.213 489.758 540.213 488.424 539.39 487.602C538.568 486.779 537.234 486.779 536.411 487.602C535.589 488.425 535.589 489.759 536.412 490.581Z" fill="#B3874F"/>
</g>
<g clip-path="url(#clip3)">
<path d="M132.857 519.723H7.14286C3.21429 519.723 0 516.509 0 512.58C0 508.651 3.21429 505.437 7.14286 505.437H132.857C136.786 505.437 140 508.651 140 512.58C140 516.509 136.786 519.723 132.857 519.723Z" fill="#6A3311"/>
<path d="M132.857 508.294H7.14286C3.21429 508.294 0 505.08 0 501.151C0 497.223 3.21429 494.009 7.14286 494.009H132.857C136.786 494.009 140 497.223 140 501.151C140 505.08 136.786 508.294 132.857 508.294Z" fill="#A8431A"/>
<path d="M18.5714 488.294C10.7143 488.294 11.76 485.414 11.4286 482.58C3.88 484.011 0 488.306 0 492.58C0 498.103 8.95429 502.58 20 502.58C31.0457 502.58 40 498.103 40 492.58C40 491.043 39.2857 489.594 38.0486 488.294H18.5714Z" fill="#ED3F32"/>
<path d="M37.9943 488.294C39.2429 489.597 40 491.04 40 492.58C40 494.911 38.3914 497.051 35.7143 498.751C39.3771 501.08 45.0457 502.58 51.4286 502.58C62.4743 502.58 71.4286 498.103 71.4286 492.58C71.4286 491.043 70.7143 489.594 69.4771 488.294H37.9943Z" fill="#F9EA80"/>
<path d="M128.571 471.151H8.57143V488.294H128.571V471.151Z" fill="#D28F1B"/>
<path d="M128.571 471.151H8.57143L68.5714 411.151L128.571 471.151Z" fill="#FDE3AA"/>
<path d="M128.571 486.977V488.291H102.266C101.931 488.451 101.62 488.617 101.317 488.789C102.283 489.96 102.857 491.231 102.857 492.58C102.857 494.614 101.634 496.506 99.5457 498.086C102.929 500.763 109.54 502.58 117.143 502.58C128.189 502.58 137.143 498.743 137.143 494.009C137.143 491.097 133.749 488.529 128.571 486.977Z" fill="#F9EA80"/>
<path d="M69.4429 488.294C70.6914 489.594 71.4286 491.04 71.4286 492.58C71.4286 494.46 70.3743 496.209 68.5714 497.711C72.0657 500.623 78.4257 502.58 85.7143 502.58C96.76 502.58 105.714 498.103 105.714 492.58C105.714 491.043 105 489.594 103.763 488.294H69.4429Z" fill="#ED3F32"/>
<path d="M97.1429 462.58C98.7208 462.58 100 461.301 100 459.723C100 458.145 98.7208 456.866 97.1429 456.866C95.5649 456.866 94.2857 458.145 94.2857 459.723C94.2857 461.301 95.5649 462.58 97.1429 462.58Z" fill="#D28F1B"/>
<path d="M65.7143 436.866C67.2922 436.866 68.5714 435.587 68.5714 434.009C68.5714 432.431 67.2922 431.151 65.7143 431.151C64.1363 431.151 62.8571 432.431 62.8571 434.009C62.8571 435.587 64.1363 436.866 65.7143 436.866Z" fill="#D28F1B"/>
<path d="M40 462.58C41.578 462.58 42.8571 461.301 42.8571 459.723C42.8571 458.145 41.578 456.866 40 456.866C38.422 456.866 37.1429 458.145 37.1429 459.723C37.1429 461.301 38.422 462.58 40 462.58Z" fill="#D28F1B"/>
<path d="M77.1429 454.009C78.7208 454.009 80 452.729 80 451.151C80 449.574 78.7208 448.294 77.1429 448.294C75.5649 448.294 74.2857 449.574 74.2857 451.151C74.2857 452.729 75.5649 454.009 77.1429 454.009Z" fill="#D28F1B"/>
<path d="M60 456.866C61.578 456.866 62.8571 455.587 62.8571 454.009C62.8571 452.431 61.578 451.151 60 451.151C58.422 451.151 57.1429 452.431 57.1429 454.009C57.1429 455.587 58.422 456.866 60 456.866Z" fill="#D28F1B"/>
<path d="M134.286 519.723H3.49714V538.851H134.286V519.723Z" fill="#FDE3AA"/>
<path d="M88.5714 528.294C90.1494 528.294 91.4286 527.015 91.4286 525.437C91.4286 523.859 90.1494 522.58 88.5714 522.58C86.9935 522.58 85.7143 523.859 85.7143 525.437C85.7143 527.015 86.9935 528.294 88.5714 528.294Z" fill="#D28F1B"/>
<path d="M111.429 534.009C113.007 534.009 114.286 532.729 114.286 531.151C114.286 529.574 113.007 528.294 111.429 528.294C109.851 528.294 108.571 529.574 108.571 531.151C108.571 532.729 109.851 534.009 111.429 534.009Z" fill="#D28F1B"/>
<path d="M20 534.009C21.578 534.009 22.8571 532.729 22.8571 531.151C22.8571 529.574 21.578 528.294 20 528.294C18.422 528.294 17.1429 529.574 17.1429 531.151C17.1429 532.729 18.422 534.009 20 534.009Z" fill="#D28F1B"/>
<path d="M68.5714 534.009C70.1494 534.009 71.4286 532.729 71.4286 531.151C71.4286 529.574 70.1494 528.294 68.5714 528.294C66.9935 528.294 65.7143 529.574 65.7143 531.151C65.7143 532.729 66.9935 534.009 68.5714 534.009Z" fill="#D28F1B"/>
<path d="M42.8571 528.294C44.4351 528.294 45.7143 527.015 45.7143 525.437C45.7143 523.859 44.4351 522.58 42.8571 522.58C41.2792 522.58 40 523.859 40 525.437C40 527.015 41.2792 528.294 42.8571 528.294Z" fill="#D28F1B"/>
</g>
<g clip-path="url(#clip4)">
<path d="M24.1138 211.529C23.7752 211.77 23.3889 211.936 22.9813 212.016C22.0439 212.201 21.0976 212.292 20.1534 212.292C13.1432 212.292 6.1838 207.343 2.87498 199.658C-0.880499 190.938 1.15399 181.223 7.71204 176.558C8.05059 176.317 8.43687 176.151 8.84451 176.07C16.741 174.512 25.1959 179.709 28.9511 188.429C32.7063 197.149 30.6723 206.863 24.1138 211.529Z" fill="#939B48"/>
<path d="M28.3544 222.935C27.976 223.098 27.5823 223.175 27.195 223.175C26.0581 223.175 24.9762 222.51 24.4982 221.4L13.0954 194.92C12.4542 193.431 13.1416 191.705 14.63 191.064C16.1192 190.422 17.8449 191.11 18.4862 192.598L29.8889 219.079C30.5302 220.567 29.8428 222.294 28.3544 222.935Z" fill="#60682E"/>
<path d="M133.065 238.916C133.065 243.772 131.033 248.464 127.491 251.789C126.775 252.461 125.829 252.835 124.846 252.835H77.6138C76.2005 252.835 74.8998 252.064 74.2222 250.823C72.8134 248.244 72.0691 245.32 72.0691 242.368C72.0691 236.365 75.0462 230.926 79.8867 227.697C79.5858 226.399 79.4345 225.064 79.4345 223.704C79.4345 213.969 87.3544 206.049 97.0889 206.049C106.002 206.049 113.393 212.688 114.578 221.28C114.855 221.267 115.132 221.26 115.411 221.26C125.145 221.26 133.065 229.18 133.065 238.916Z" fill="#D19B3F"/>
<path d="M131.953 154.78C131.518 159.139 128.624 162.713 124.634 164.096L112.485 241.963C111.913 245.635 110.849 249.173 109.32 252.522H24.804L35.4429 221.613C40.9605 205.582 55.8743 194.885 72.5706 195C74.5618 195.014 76.5744 195.177 78.553 195.486L89.8448 197.247L103.163 160.496C100.232 158.061 98.6883 154.186 99.2921 150.313C99.7454 147.407 101.303 144.853 103.678 143.119C106.053 141.385 108.96 140.68 111.866 141.133C113.786 141.433 115.568 142.226 117.055 143.42C118.861 142.725 120.827 142.517 122.773 142.836C128.496 143.77 132.528 149.017 131.953 154.78Z" fill="#98642E"/>
<path d="M99.2921 150.313C99.7454 147.408 101.303 144.853 103.678 143.119C106.053 141.386 108.96 140.681 111.866 141.134C113.786 141.433 115.568 142.226 117.055 143.421C118.861 142.726 120.827 142.518 122.773 142.836C128.496 143.77 132.528 149.017 131.953 154.78C131.518 159.139 128.624 162.713 124.635 164.096L122.41 178.355L98.1562 174.312L103.163 160.496C100.232 158.062 98.688 154.187 99.2921 150.313Z" fill="#C6A871"/>
<path d="M87.7895 217.419L68.1739 237.034C67.6006 237.608 66.8497 237.894 66.0988 237.894C65.3478 237.894 64.5964 237.608 64.0237 237.034C62.8777 235.888 62.8777 234.03 64.0237 232.884L83.6393 213.268C84.7852 212.122 86.6436 212.122 87.79 213.268C88.9362 214.414 88.9357 216.273 87.7895 217.419ZM67.9231 209.638C66.7767 208.492 64.9188 208.492 63.7724 209.638L51.5201 221.891C50.3742 223.036 50.3742 224.895 51.5201 226.041C52.093 226.614 52.8442 226.901 53.5952 226.901C54.3461 226.901 55.0976 226.614 55.6703 226.041L67.9226 213.788C69.069 212.642 69.069 210.784 67.9231 209.638ZM96.9882 227.044C95.8425 225.898 93.9839 225.898 92.8377 227.044L80.5854 239.296C79.4395 240.442 79.4395 242.3 80.5854 243.447C81.1586 244.02 81.9096 244.306 82.6605 244.306C83.4115 244.306 84.1629 244.02 84.7356 243.447L96.9877 231.195C98.1344 230.049 98.1344 228.19 96.9882 227.044Z" fill="#4F3324"/>
<path d="M53.8261 242.264C53.8261 245.952 52.2831 249.515 49.5926 252.041C49.0484 252.551 48.3304 252.835 47.5842 252.835H11.7143C10.6412 252.835 9.65318 252.249 9.13876 251.307C8.06878 249.349 7.50346 247.128 7.50346 244.886C7.50346 240.327 9.76445 236.197 13.4406 233.745C13.2122 232.759 13.0973 231.745 13.0973 230.712C13.0973 223.319 19.1119 217.305 26.5047 217.305C33.2732 217.305 38.8862 222.346 39.7864 228.871C39.9965 228.861 40.2075 228.856 40.4189 228.856C47.8115 228.856 53.8261 234.871 53.8261 242.264Z" fill="#E9B84C"/>
<path d="M136 252.522C136 254.143 134.724 255.457 133.15 255.457H109.305L97.7359 274.584C97.2041 275.463 96.2517 276 95.2247 276H41.7753C40.748 276 39.7959 275.463 39.2641 274.584L27.6949 255.457H3.8495C2.27591 255.457 1 254.143 1 252.522C1 250.901 2.27564 249.587 3.8495 249.587H133.15C134.724 249.587 136 250.901 136 252.522Z" fill="#5A482F"/>
<path d="M27.6949 255.457H109.305L97.7359 274.584C97.2041 275.463 96.2517 276 95.2247 276H41.7753C40.748 276 39.7959 275.463 39.264 274.584L27.6949 255.457Z" fill="#7D684D"/>
<path d="M84.8142 173.78C84.8142 178.544 80.939 182.419 76.1758 182.419H53.4623C51.9359 182.419 50.694 183.661 50.694 185.188V190.891C50.694 192.512 49.3801 193.826 47.7593 193.826C46.1385 193.826 44.8246 192.512 44.8246 190.891V185.188C44.8246 180.425 48.6998 176.55 53.4625 176.55H76.176C77.7027 176.55 78.9451 175.307 78.9451 173.78C78.9451 172.254 77.7032 171.012 76.176 171.012H36.052C31.2885 171.012 27.4131 167.137 27.4131 162.374C27.4131 157.611 31.2885 153.736 36.052 153.736H60.9632C62.4899 153.736 63.7315 152.494 63.7315 150.967C63.7315 149.346 65.0454 148.032 66.6662 148.032C68.287 148.032 69.6008 149.346 69.6008 150.967C69.6008 155.73 65.7257 159.605 60.9629 159.605H36.0518C34.5248 159.605 33.2824 160.847 33.2824 162.374C33.2824 163.9 34.5248 165.142 36.0518 165.142H76.1758C80.9393 165.142 84.8142 169.017 84.8142 173.78Z" fill="#CEB896"/>
</g>
<defs>
<linearGradient id="paint0_linear" x1="226.48" y1="332.155" x2="150.194" y2="60.914" gradientUnits="userSpaceOnUse">
<stop stop-color="#808080" stop-opacity="0.25"/>
<stop offset="0.54" stop-color="#808080" stop-opacity="0.12"/>
<stop offset="1" stop-color="#808080" stop-opacity="0.1"/>
</linearGradient>
<linearGradient id="paint1_linear" x1="108.345" y1="159.807" x2="90.8741" y2="108.072" gradientUnits="userSpaceOnUse">
<stop stop-opacity="0.12"/>
<stop offset="0.55" stop-opacity="0.09"/>
<stop offset="1" stop-opacity="0.02"/>
</linearGradient>
<linearGradient id="paint2_linear" x1="82453.9" y1="202396" x2="82453.9" y2="81094.5" gradientUnits="userSpaceOnUse">
<stop stop-color="#808080" stop-opacity="0.25"/>
<stop offset="0.54" stop-color="#808080" stop-opacity="0.12"/>
<stop offset="1" stop-color="#808080" stop-opacity="0.1"/>
</linearGradient>
<linearGradient id="paint3_linear" x1="177898" y1="172429" x2="165164" y2="52280.4" gradientUnits="userSpaceOnUse">
<stop stop-color="#808080" stop-opacity="0.25"/>
<stop offset="0.54" stop-color="#808080" stop-opacity="0.12"/>
<stop offset="1" stop-color="#808080" stop-opacity="0.1"/>
</linearGradient>
<linearGradient id="paint4_linear" x1="162846" y1="27040.7" x2="160997" y2="9586.69" gradientUnits="userSpaceOnUse">
<stop stop-color="#B3B3B3" stop-opacity="0.25"/>
<stop offset="0.54" stop-color="#B3B3B3" stop-opacity="0.1"/>
<stop offset="1" stop-color="#B3B3B3" stop-opacity="0.05"/>
</linearGradient>
<linearGradient id="paint5_linear" x1="-35778.6" y1="-13785.5" x2="-36500.1" y2="-18285.8" gradientUnits="userSpaceOnUse">
<stop stop-opacity="0.12"/>
<stop offset="0.55" stop-opacity="0.09"/>
<stop offset="1" stop-opacity="0.02"/>
</linearGradient>
<linearGradient id="paint6_linear" x1="82483.5" y1="120937" x2="82483.5" y2="113.287" gradientUnits="userSpaceOnUse">
<stop stop-color="#808080" stop-opacity="0.25"/>
<stop offset="0.54" stop-color="#808080" stop-opacity="0.12"/>
<stop offset="1" stop-color="#808080" stop-opacity="0.1"/>
</linearGradient>
<linearGradient id="paint7_linear" x1="82673" y1="17552.9" x2="82673" y2="0" gradientUnits="userSpaceOnUse">
<stop stop-color="#B3B3B3" stop-opacity="0.25"/>
<stop offset="0.54" stop-color="#B3B3B3" stop-opacity="0.1"/>
<stop offset="1" stop-color="#B3B3B3" stop-opacity="0.05"/>
</linearGradient>
<linearGradient id="paint8_linear" x1="-40620" y1="-26331.2" x2="-40847.1" y2="-30816.5" gradientUnits="userSpaceOnUse">
<stop stop-opacity="0.12"/>
<stop offset="0.55" stop-opacity="0.09"/>
<stop offset="1" stop-opacity="0.02"/>
</linearGradient>
<linearGradient id="paint9_linear" x1="133860" y1="242345" x2="133860" y2="82905.1" gradientUnits="userSpaceOnUse">
<stop stop-color="#808080" stop-opacity="0.25"/>
<stop offset="0.54" stop-color="#808080" stop-opacity="0.12"/>
<stop offset="1" stop-color="#808080" stop-opacity="0.1"/>
</linearGradient>
<linearGradient id="paint10_linear" x1="72834.7" y1="134939" x2="72834.7" y2="74677.5" gradientUnits="userSpaceOnUse">
<stop stop-color="#808080" stop-opacity="0.25"/>
<stop offset="0.54" stop-color="#808080" stop-opacity="0.12"/>
<stop offset="1" stop-color="#808080" stop-opacity="0.1"/>
</linearGradient>
<linearGradient id="paint11_linear" x1="-71782" y1="-4628.63" x2="-72592.5" y2="-20617.8" gradientUnits="userSpaceOnUse">
<stop stop-opacity="0.12"/>
<stop offset="0.55" stop-opacity="0.09"/>
<stop offset="1" stop-opacity="0.02"/>
</linearGradient>
<clipPath id="clip0">
<rect width="481.82" height="493" fill="white" transform="translate(47)"/>
</clipPath>
<clipPath id="clip1">
<rect width="147" height="147" fill="white" transform="translate(416 178)"/>
</clipPath>
<clipPath id="clip2">
<rect width="160.922" height="160.922" fill="white" transform="translate(458.87 382.091) rotate(44.9948)"/>
</clipPath>
<clipPath id="clip3">
<rect width="140" height="140" fill="white" transform="translate(0 405)"/>
</clipPath>
<clipPath id="clip4">
<rect width="135" height="135" fill="white" transform="translate(1 141)"/>
</clipPath>
</defs>
</svg>
